<svg width="20" height="20" viewBox="0 0 20 20" fill="none" xmlns="http://www.w3.org/2000/svg">
<path d="M6 1C6.5 1 8.5 5.5 8.5 6C8.5 7 7 8 6.5 9C6 10 7 11 8 12C8.3943 12.3943 10 14 11 13.5C12 13 13 11.5 14 11.5C14.5 11.5 19 13.5 19 14C19 16 17.5 17.5 16 18C14.5 18.5 13.5 18.5 11.5 18C9.5 17.5 8 17 5.5 14.5C3 12 2.5 10.5 2 8.5C1.5 6.5 1.5 5.5 2 4C2.5 2.5 4 1 6 1Z" stroke="white" stroke-width="2" stroke-linecap="round" stroke-linejoin="round"/>
<path d="M12 5.04407C12.6608 5.34737 13.2571 5.76721 13.7624 6.27726C14.2546 6.77404 14.6606 7.35639 14.956 8.00003" stroke="white" stroke-width="2" stroke-linecap="round" stroke-linejoin="round"/>
<path d="M18.748 6.99998C18.3874 5.59924 17.6571 4.34698 16.6672 3.35348C15.6704 2.35308 14.4105 1.61505 13 1.25201" stroke="white" stroke-width="2" stroke-linecap="round" stroke-linejoin="round"/>
</svg>
